# xmcd CD database file
#
# Track frame offsets:
#	150
#	16601
#	38261
#	66206
#	81388
#	115503
#	134784
#	153465
#	177366
#	192032
#	216053
#	233415
#	253690
#	267194
#	283677
#	304613
#	333079
#
# Disc length: 4717 seconds
#
# Revision: 0
# Processed by: cddbd v1.5.1PL2 Copyright (c) Steve Scherf et al.
# Submitted via: CDex 1.70beta2
#
DISCID=dc126b11
DTITLE=Różni Wykonawcy - RENDEZ VOUS ON THE JAZZ BOULEVARD VOL.5 CD1
DYEAR=2006
DGENRE=Jazz
TTITLE0=Anna Maria Jopek - Patrzę na ciebie
TTITLE1=Lisa Ekdahl et Peter Nordahl Trio - Nature Boy
TTITLE2=Sofia Pettersson - Can't Take My Eyes Off You
TTITLE3=Kari Bremnes - Han e en Katastrofe
TTITLE4=Jimmy Dludlu - Melanie Scholtz - Peaceful Moment
TTITLE5=Muriel Zoe - A Hard Days Night
TTITLE6=Rigmor Gustafsson and Jacky Terrasson Trio - I'll Never Fall In Love Again
TTITLE7=Diana Krall - Lets Face The Music And Dance
TTITLE8=Jazzamor - Fly Me To The Moon
TTITLE9=Gosia Kościelniak et MishaLuck Band - Mandarynki
TTITLE10=Terrie Richards Alden et The Warren Vache Quartet - Gee Baby, Ain't I Good To You
TTITLE11=Katia B - Are You Sleeping? 
TTITLE12=Zona Sul - And I Love Her
TTITLE13=Rosa Passos - Que Reste-T-De Nos Amours
TTITLE14=Badi Assad - One
TTITLE15=Dena DeRose - Imagine
TTITLE16=Silje Nergaard - This Is Not America
EXTD=YEAR: 2006
EXTT0=
EXTT1=
EXTT2=
EXTT3=
EXTT4=
EXTT5=
EXTT6=
EXTT7=
EXTT8=
EXTT9=
EXTT10=
EXTT11=
EXTT12=
EXTT13=
EXTT14=
EXTT15=
EXTT16=
PLAYORDER=
